<?xml version="1.0" encoding="UTF-8"?>
<svg width="74px" height="38px" viewBox="0 0 74 38" version="1.1" xmlns="http://www.w3.org/2000/svg" xmlns:xlink="http://www.w3.org/1999/xlink">
    <title>Hyundai Logo</title>
    <g id="314_Footer-Linklist" stroke="none" stroke-width="1" fill="none" fill-rule="evenodd">
        <g id="314_1404px" transform="translate(-103.000000, -88.000000)" fill="#FFFFFF">
            <path d="M140,126 C119.565293,126 103,117.494472 103,106.997563 C103,96.5055278 119.565293,88 140,88 C160.435679,88 177,96.5055278 177,106.997563 C177,117.494472 160.435679,126 140,126 Z M126.44036,92.1075052 C114.411639,94.6001568 106,100.309643 106,106.951774 C106,110.629991 108.584604,114.022685 112.931525,116.743558 C113.293525,116.966839 113.529993,117.009322 113.705155,116.998454 C114.019472,116.979683 114.19658,116.783077 114.325031,116.54794 C114.411639,116.398756 114.519655,116.170534 114.624752,115.941325 C116.043559,112.600994 121.030793,101.038766 127.581829,93.1992135 C127.735581,93.0114989 127.820243,92.8880025 127.904904,92.7486986 C128.046979,92.4898501 128.014866,92.2823761 127.90685,92.1569038 C127.723904,91.9573335 127.21399,91.9563456 126.44036,92.1075052 Z M133.038168,97.4402146 C129.422141,106.225079 136.267275,105.136583 138.118758,104.728147 C141.264749,104.032108 144.268392,102.838757 146.673981,101.876087 C153.523892,99.1358722 157.160937,96.3866699 158.367554,95.3301294 C158.514679,95.2013074 158.6255,95.1014454 158.699062,95.0255502 C158.871027,94.8467971 159,94.6580578 159,94.4084027 C159,94.1198014 158.750652,93.8881214 158.268196,93.7203532 C158.230937,93.7053739 158.108652,93.6554429 158.070437,93.6434594 C152.83508,91.9737659 146.587999,91.0031068 139.873749,91.0031068 C139.822159,91.0031068 139.693186,90.9961165 139.513579,91.0031068 C138.709168,91.0270737 137.814954,91.207824 137.086972,91.5853026 C134.689025,92.8335782 133.64482,95.9742397 133.038168,97.4402146 Z M165.675671,97.4515296 C165.592954,97.6016891 165.48688,97.828904 165.378861,98.0600705 C163.96098,101.398155 158.973585,112.955493 152.423309,120.794409 C152.264686,120.989023 152.178075,121.11251 152.10217,121.246863 C151.950358,121.507666 151.982472,121.720063 152.10217,121.843549 C152.27831,122.041127 152.79116,122.045079 153.563841,121.891956 C165.588088,119.394567 174,113.688508 174,107.045928 C174,103.368997 171.422125,99.9765793 167.071169,97.257903 C166.71305,97.0326638 166.474628,96.9891966 166.300434,97.0020392 C165.983187,97.0227849 165.807047,97.2173994 165.675671,97.4515296 Z M146.961927,116.555128 C150.578499,107.770872 143.729466,108.865284 141.884393,109.271695 C138.734105,109.965688 135.730009,111.161952 133.325967,112.120562 C126.473112,114.859588 122.837429,117.615589 121.626809,118.668063 C121.482528,118.799871 121.369779,118.896731 121.298116,118.974618 C121.124215,119.151361 121,119.33809 121,119.59372 C121,119.878307 121.246519,120.113965 121.728092,120.280723 C121.765357,120.295701 121.88575,120.346627 121.930658,120.359608 C127.160117,122.024193 133.407185,122.997781 140.122448,122.997781 C140.176912,122.997781 140.304949,123.002774 140.485539,122.997781 C141.290071,122.972817 142.188242,122.789084 142.912512,122.415626 C145.311776,121.166438 146.356139,118.026993 146.961927,116.555128 Z" id="Logo"></path>
        </g>
    </g>
</svg>